<svg xmlns="http://www.w3.org/2000/svg" width="84" height="62" fill="none" xmlns:v="https://vecta.io/nano"><path d="M65.635 62H52.058h-3.656-.789V43.79h5.956c1.51 0 2.403-1.716 1.51-2.952L43.493 24.806a1.85 1.85 0 0 0-3.004 0L28.904 40.837a1.86 1.86 0 0 0 1.51 2.952h5.956V62h-.789-3.656-15.739C7.175 61.503 0 53.075 0 43.944c0-6.299 3.416-11.791 8.479-14.761-.463-1.253-.704-2.592-.704-3.999 0-6.436 5.201-11.637 11.637-11.637a11.44 11.44 0 0 1 3.982.704C27.119 6.355 35.152.88 44.489.88c12.083.017 22.038 9.269 23.171 21.06C76.946 23.536 84 32.135 84 41.867 84 52.269 75.899 61.28 65.635 62z" fill="#101f4f" fill-opacity=".45"/></svg>